<?xml version="1.0" encoding="UTF-8"?>
<svg xmlns="http://www.w3.org/2000/svg" xmlns:xlink="http://www.w3.org/1999/xlink" width="720pt" height="720pt" viewBox="0 0 720 720" version="1.1">
<g id="surface89">
<rect x="0" y="0" width="720" height="720" style="fill:rgb(100%,100%,100%);fill-opacity:1;stroke:none;"/>
<path style="fill-rule:nonzero;fill:rgb(100%,100%,100%);fill-opacity:1;stroke-width:1.5;stroke-linecap:round;stroke-linejoin:round;stroke:rgb(0%,0%,0%);stroke-opacity:1;stroke-miterlimit:10;" d="M 420.277344 336.710938 C 420.277344 342.109375 412.179688 342.109375 412.179688 336.710938 C 412.179688 331.308594 420.277344 331.308594 420.277344 336.710938 "/>
<path style="fill-rule:nonzero;fill:rgb(100%,100%,100%);fill-opacity:1;stroke-width:1.5;stroke-linecap:round;stroke-linejoin:round;stroke:rgb(0%,0%,0%);stroke-opacity:1;stroke-miterlimit:10;" d="M 387.339844 303.769531 C 387.339844 309.171875 379.242188 309.171875 379.242188 303.769531 C 379.242188 298.371094 387.339844 298.371094 387.339844 303.769531 "/>
<path style="fill-rule:nonzero;fill:rgb(100%,100%,100%);fill-opacity:1;stroke-width:1.5;stroke-linecap:round;stroke-linejoin:round;stroke:rgb(0%,0%,0%);stroke-opacity:1;stroke-miterlimit:10;" d="M 340.757812 303.769531 C 340.757812 309.171875 332.660156 309.171875 332.660156 303.769531 C 332.660156 298.371094 340.757812 298.371094 340.757812 303.769531 "/>
<path style="fill-rule:nonzero;fill:rgb(50.196078%,50.196078%,100%);fill-opacity:1;stroke-width:1.5;stroke-linecap:round;stroke-linejoin:round;stroke:rgb(0%,0%,0%);stroke-opacity:1;stroke-miterlimit:10;" d="M 307.820312 336.710938 C 307.820312 342.109375 299.722656 342.109375 299.722656 336.710938 C 299.722656 331.308594 307.820312 331.308594 307.820312 336.710938 "/>
<path style="fill-rule:nonzero;fill:rgb(100%,100%,100%);fill-opacity:1;stroke-width:1.5;stroke-linecap:round;stroke-linejoin:round;stroke:rgb(0%,0%,0%);stroke-opacity:1;stroke-miterlimit:10;" d="M 522.089844 339.71875 C 522.089844 345.121094 513.988281 345.121094 513.988281 339.71875 C 513.988281 334.320312 522.089844 334.320312 522.089844 339.71875 "/>
<path style="fill-rule:nonzero;fill:rgb(100%,100%,100%);fill-opacity:1;stroke-width:1.5;stroke-linecap:round;stroke-linejoin:round;stroke:rgb(0%,0%,0%);stroke-opacity:1;stroke-miterlimit:10;" d="M 516.0625 312.253906 C 516.0625 317.652344 507.964844 317.652344 507.964844 312.253906 C 507.964844 306.851562 516.0625 306.851562 516.0625 312.253906 "/>
<path style="fill-rule:nonzero;fill:rgb(100%,100%,100%);fill-opacity:1;stroke-width:1.5;stroke-linecap:round;stroke-linejoin:round;stroke:rgb(0%,0%,0%);stroke-opacity:1;stroke-miterlimit:10;" d="M 505.300781 286.273438 C 505.300781 291.671875 497.203125 291.671875 497.203125 286.273438 C 497.203125 280.871094 505.300781 280.871094 505.300781 286.273438 "/>
<path style="fill-rule:nonzero;fill:rgb(50.196078%,50.196078%,100%);fill-opacity:1;stroke-width:1.5;stroke-linecap:round;stroke-linejoin:round;stroke:rgb(0%,0%,0%);stroke-opacity:1;stroke-miterlimit:10;" d="M 490.140625 262.589844 C 490.140625 267.988281 482.042969 267.988281 482.042969 262.589844 C 482.042969 257.1875 490.140625 257.1875 490.140625 262.589844 "/>
<path style="fill-rule:nonzero;fill:rgb(100%,100%,100%);fill-opacity:1;stroke-width:1.5;stroke-linecap:round;stroke-linejoin:round;stroke:rgb(0%,0%,0%);stroke-opacity:1;stroke-miterlimit:10;" d="M 682.554688 349.835938 C 682.554688 355.234375 674.453125 355.234375 674.453125 349.835938 C 674.453125 344.433594 682.554688 344.433594 682.554688 349.835938 "/>
<path style="fill-rule:nonzero;fill:rgb(100%,100%,100%);fill-opacity:1;stroke-width:1.5;stroke-linecap:round;stroke-linejoin:round;stroke:rgb(0%,0%,0%);stroke-opacity:1;stroke-miterlimit:10;" d="M 681.792969 335.777344 C 681.792969 341.175781 673.695312 341.175781 673.695312 335.777344 C 673.695312 330.378906 681.792969 330.378906 681.792969 335.777344 "/>
<path style="fill-rule:nonzero;fill:rgb(100%,100%,100%);fill-opacity:1;stroke-width:1.5;stroke-linecap:round;stroke-linejoin:round;stroke:rgb(0%,0%,0%);stroke-opacity:1;stroke-miterlimit:10;" d="M 680.414062 321.769531 C 680.414062 327.167969 672.316406 327.167969 672.316406 321.769531 C 672.316406 316.367188 680.414062 316.367188 680.414062 321.769531 "/>
<path style="fill-rule:nonzero;fill:rgb(50.196078%,50.196078%,100%);fill-opacity:1;stroke-width:1.5;stroke-linecap:round;stroke-linejoin:round;stroke:rgb(0%,0%,0%);stroke-opacity:1;stroke-miterlimit:10;" d="M 678.417969 307.832031 C 678.417969 313.234375 670.316406 313.234375 670.316406 307.832031 C 670.316406 302.433594 678.417969 302.433594 678.417969 307.832031 "/>
<path style="fill:none;stroke-width:1.5;stroke-linecap:round;stroke-linejoin:round;stroke:rgb(0%,0%,0%);stroke-opacity:1;stroke-miterlimit:10;" d="M 530.761719 340.519531 L 665.78125 349.03125 "/>
<path style="fill:none;stroke-width:1.5;stroke-linecap:round;stroke-linejoin:round;stroke:rgb(0%,0%,0%);stroke-opacity:1;stroke-miterlimit:10;" d="M 530.78125 339.40625 L 665 336.09375 "/>
<path style="fill:none;stroke-width:1.5;stroke-linecap:round;stroke-linejoin:round;stroke:rgb(0%,0%,0%);stroke-opacity:1;stroke-miterlimit:10;" d="M 530.707031 338.285156 L 663.699219 323.203125 "/>
<path style="fill:none;stroke-width:1.5;stroke-linecap:round;stroke-linejoin:round;stroke:rgb(0%,0%,0%);stroke-opacity:1;stroke-miterlimit:10;" d="M 530.527344 337.171875 L 661.878906 310.382812 "/>
<path style="fill-rule:nonzero;fill:rgb(100%,100%,100%);fill-opacity:1;stroke-width:1.5;stroke-linecap:round;stroke-linejoin:round;stroke:rgb(0%,0%,0%);stroke-opacity:1;stroke-miterlimit:10;" d="M 674.453125 287.890625 C 674.453125 293.292969 666.351562 293.292969 666.351562 287.890625 C 666.351562 282.492188 674.453125 282.492188 674.453125 287.890625 "/>
<path style="fill-rule:nonzero;fill:rgb(100%,100%,100%);fill-opacity:1;stroke-width:1.5;stroke-linecap:round;stroke-linejoin:round;stroke:rgb(0%,0%,0%);stroke-opacity:1;stroke-miterlimit:10;" d="M 670.964844 274.253906 C 670.964844 279.652344 662.863281 279.652344 662.863281 274.253906 C 662.863281 268.855469 670.964844 268.855469 670.964844 274.253906 "/>
<path style="fill-rule:nonzero;fill:rgb(100%,100%,100%);fill-opacity:1;stroke-width:1.5;stroke-linecap:round;stroke-linejoin:round;stroke:rgb(0%,0%,0%);stroke-opacity:1;stroke-miterlimit:10;" d="M 666.878906 260.78125 C 666.878906 266.183594 658.777344 266.183594 658.777344 260.78125 C 658.777344 255.382812 666.878906 255.382812 666.878906 260.78125 "/>
<path style="fill-rule:nonzero;fill:rgb(50.196078%,50.196078%,100%);fill-opacity:1;stroke-width:1.5;stroke-linecap:round;stroke-linejoin:round;stroke:rgb(0%,0%,0%);stroke-opacity:1;stroke-miterlimit:10;" d="M 662.199219 247.503906 C 662.199219 252.90625 654.101562 252.90625 654.101562 247.503906 C 654.101562 242.105469 662.199219 242.105469 662.199219 247.503906 "/>
<path style="fill:none;stroke-width:1.5;stroke-linecap:round;stroke-linejoin:round;stroke:rgb(0%,0%,0%);stroke-opacity:1;stroke-miterlimit:10;" d="M 524.613281 310.316406 L 657.800781 289.828125 "/>
<path style="fill:none;stroke-width:1.5;stroke-linecap:round;stroke-linejoin:round;stroke:rgb(0%,0%,0%);stroke-opacity:1;stroke-miterlimit:10;" d="M 524.394531 309.214844 L 654.535156 277.289062 "/>
<path style="fill:none;stroke-width:1.5;stroke-linecap:round;stroke-linejoin:round;stroke:rgb(0%,0%,0%);stroke-opacity:1;stroke-miterlimit:10;" d="M 524.078125 308.136719 L 650.765625 264.898438 "/>
<path style="fill:none;stroke-width:1.5;stroke-linecap:round;stroke-linejoin:round;stroke:rgb(0%,0%,0%);stroke-opacity:1;stroke-miterlimit:10;" d="M 523.667969 307.089844 L 646.496094 252.667969 "/>
<path style="fill-rule:nonzero;fill:rgb(100%,100%,100%);fill-opacity:1;stroke-width:1.5;stroke-linecap:round;stroke-linejoin:round;stroke:rgb(0%,0%,0%);stroke-opacity:1;stroke-miterlimit:10;" d="M 654.417969 228.722656 C 654.417969 234.121094 646.320312 234.121094 646.320312 228.722656 C 646.320312 223.320312 654.417969 223.320312 654.417969 228.722656 "/>
<path style="fill-rule:nonzero;fill:rgb(100%,100%,100%);fill-opacity:1;stroke-width:1.5;stroke-linecap:round;stroke-linejoin:round;stroke:rgb(0%,0%,0%);stroke-opacity:1;stroke-miterlimit:10;" d="M 648.339844 216.027344 C 648.339844 221.425781 640.238281 221.425781 640.238281 216.027344 C 640.238281 210.625 648.339844 210.625 648.339844 216.027344 "/>
<path style="fill-rule:nonzero;fill:rgb(100%,100%,100%);fill-opacity:1;stroke-width:1.5;stroke-linecap:round;stroke-linejoin:round;stroke:rgb(0%,0%,0%);stroke-opacity:1;stroke-miterlimit:10;" d="M 641.703125 203.609375 C 641.703125 209.011719 633.601562 209.011719 633.601562 203.609375 C 633.601562 198.210938 641.703125 198.210938 641.703125 203.609375 "/>
<path style="fill-rule:nonzero;fill:rgb(50.196078%,50.196078%,100%);fill-opacity:1;stroke-width:1.5;stroke-linecap:round;stroke-linejoin:round;stroke:rgb(0%,0%,0%);stroke-opacity:1;stroke-miterlimit:10;" d="M 634.523438 191.5 C 634.523438 196.902344 626.425781 196.902344 626.425781 191.5 C 626.425781 186.101562 634.523438 186.101562 634.523438 191.5 "/>
<path style="fill:none;stroke-width:1.5;stroke-linecap:round;stroke-linejoin:round;stroke:rgb(0%,0%,0%);stroke-opacity:1;stroke-miterlimit:10;" d="M 513.144531 281.683594 L 638.476562 233.3125 "/>
<path style="fill:none;stroke-width:1.5;stroke-linecap:round;stroke-linejoin:round;stroke:rgb(0%,0%,0%);stroke-opacity:1;stroke-miterlimit:10;" d="M 512.695312 280.652344 L 632.847656 221.644531 "/>
<path style="fill:none;stroke-width:1.5;stroke-linecap:round;stroke-linejoin:round;stroke:rgb(0%,0%,0%);stroke-opacity:1;stroke-miterlimit:10;" d="M 512.152344 279.667969 L 626.75 210.21875 "/>
<path style="fill:none;stroke-width:1.5;stroke-linecap:round;stroke-linejoin:round;stroke:rgb(0%,0%,0%);stroke-opacity:1;stroke-miterlimit:10;" d="M 511.53125 278.734375 L 620.195312 199.039062 "/>
<path style="fill-rule:nonzero;fill:rgb(100%,100%,100%);fill-opacity:1;stroke-width:1.5;stroke-linecap:round;stroke-linejoin:round;stroke:rgb(0%,0%,0%);stroke-opacity:1;stroke-miterlimit:10;" d="M 623.230469 174.597656 C 623.230469 179.996094 615.128906 179.996094 615.128906 174.597656 C 615.128906 169.195312 623.230469 169.195312 623.230469 174.597656 "/>
<path style="fill-rule:nonzero;fill:rgb(100%,100%,100%);fill-opacity:1;stroke-width:1.5;stroke-linecap:round;stroke-linejoin:round;stroke:rgb(0%,0%,0%);stroke-opacity:1;stroke-miterlimit:10;" d="M 614.789062 163.332031 C 614.789062 168.730469 606.6875 168.730469 606.6875 163.332031 C 606.6875 157.929688 614.789062 157.929688 614.789062 163.332031 "/>
<path style="fill-rule:nonzero;fill:rgb(100%,100%,100%);fill-opacity:1;stroke-width:1.5;stroke-linecap:round;stroke-linejoin:round;stroke:rgb(0%,0%,0%);stroke-opacity:1;stroke-miterlimit:10;" d="M 605.855469 152.449219 C 605.855469 157.847656 597.757812 157.847656 597.757812 152.449219 C 597.757812 147.046875 605.855469 147.046875 605.855469 152.449219 "/>
<path style="fill-rule:nonzero;fill:rgb(50.196078%,50.196078%,100%);fill-opacity:1;stroke-width:1.5;stroke-linecap:round;stroke-linejoin:round;stroke:rgb(0%,0%,0%);stroke-opacity:1;stroke-miterlimit:10;" d="M 596.453125 141.972656 C 596.453125 147.371094 588.355469 147.371094 588.355469 141.972656 C 588.355469 136.570312 596.453125 136.570312 596.453125 141.972656 "/>
<path style="fill:none;stroke-width:1.5;stroke-linecap:round;stroke-linejoin:round;stroke:rgb(0%,0%,0%);stroke-opacity:1;stroke-miterlimit:10;" d="M 496.722656 255.558594 L 608.546875 181.625 "/>
<path style="fill:none;stroke-width:1.5;stroke-linecap:round;stroke-linejoin:round;stroke:rgb(0%,0%,0%);stroke-opacity:1;stroke-miterlimit:10;" d="M 496.0625 254.648438 L 600.765625 171.269531 "/>
<path style="fill:none;stroke-width:1.5;stroke-linecap:round;stroke-linejoin:round;stroke:rgb(0%,0%,0%);stroke-opacity:1;stroke-miterlimit:10;" d="M 495.324219 253.800781 L 592.574219 161.238281 "/>
<path style="fill:none;stroke-width:1.5;stroke-linecap:round;stroke-linejoin:round;stroke:rgb(0%,0%,0%);stroke-opacity:1;stroke-miterlimit:10;" d="M 494.519531 253.027344 L 583.976562 151.535156 "/>
<path style="fill:none;stroke-width:1.5;stroke-linecap:round;stroke-linejoin:round;stroke:rgb(0%,0%,0%);stroke-opacity:1;stroke-miterlimit:10;" d="M 428.96875 337.085938 L 505.296875 339.34375 "/>
<path style="fill:none;stroke-width:1.5;stroke-linecap:round;stroke-linejoin:round;stroke:rgb(0%,0%,0%);stroke-opacity:1;stroke-miterlimit:10;" d="M 428.578125 333.554688 L 499.664062 315.40625 "/>
<path style="fill:none;stroke-width:1.5;stroke-linecap:round;stroke-linejoin:round;stroke:rgb(0%,0%,0%);stroke-opacity:1;stroke-miterlimit:10;" d="M 427.191406 330.207031 L 490.289062 292.777344 "/>
<path style="fill:none;stroke-width:1.5;stroke-linecap:round;stroke-linejoin:round;stroke:rgb(0%,0%,0%);stroke-opacity:1;stroke-miterlimit:10;" d="M 424.972656 327.433594 L 477.347656 271.863281 "/>
<path style="fill-rule:nonzero;fill:rgb(100%,100%,100%);fill-opacity:1;stroke-width:1.5;stroke-linecap:round;stroke-linejoin:round;stroke:rgb(0%,0%,0%);stroke-opacity:1;stroke-miterlimit:10;" d="M 461.460938 233.910156 C 461.460938 239.308594 453.359375 239.308594 453.359375 233.910156 C 453.359375 228.507812 461.460938 228.507812 461.460938 233.910156 "/>
<path style="fill-rule:nonzero;fill:rgb(100%,100%,100%);fill-opacity:1;stroke-width:1.5;stroke-linecap:round;stroke-linejoin:round;stroke:rgb(0%,0%,0%);stroke-opacity:1;stroke-miterlimit:10;" d="M 437.777344 218.746094 C 437.777344 224.148438 429.675781 224.148438 429.675781 218.746094 C 429.675781 213.347656 437.777344 213.347656 437.777344 218.746094 "/>
<path style="fill-rule:nonzero;fill:rgb(100%,100%,100%);fill-opacity:1;stroke-width:1.5;stroke-linecap:round;stroke-linejoin:round;stroke:rgb(0%,0%,0%);stroke-opacity:1;stroke-miterlimit:10;" d="M 411.796875 207.988281 C 411.796875 213.386719 403.699219 213.386719 403.699219 207.988281 C 403.699219 202.585938 411.796875 202.585938 411.796875 207.988281 "/>
<path style="fill-rule:nonzero;fill:rgb(50.196078%,50.196078%,100%);fill-opacity:1;stroke-width:1.5;stroke-linecap:round;stroke-linejoin:round;stroke:rgb(0%,0%,0%);stroke-opacity:1;stroke-miterlimit:10;" d="M 384.332031 201.960938 C 384.332031 207.359375 376.230469 207.359375 376.230469 201.960938 C 376.230469 196.558594 384.332031 196.558594 384.332031 201.960938 "/>
<path style="fill-rule:nonzero;fill:rgb(100%,100%,100%);fill-opacity:1;stroke-width:1.5;stroke-linecap:round;stroke-linejoin:round;stroke:rgb(0%,0%,0%);stroke-opacity:1;stroke-miterlimit:10;" d="M 582.078125 127.59375 C 582.078125 132.996094 573.976562 132.996094 573.976562 127.59375 C 573.976562 122.195312 582.078125 122.195312 582.078125 127.59375 "/>
<path style="fill-rule:nonzero;fill:rgb(100%,100%,100%);fill-opacity:1;stroke-width:1.5;stroke-linecap:round;stroke-linejoin:round;stroke:rgb(0%,0%,0%);stroke-opacity:1;stroke-miterlimit:10;" d="M 571.601562 118.191406 C 571.601562 123.59375 563.5 123.59375 563.5 118.191406 C 563.5 112.792969 571.601562 112.792969 571.601562 118.191406 "/>
<path style="fill-rule:nonzero;fill:rgb(100%,100%,100%);fill-opacity:1;stroke-width:1.5;stroke-linecap:round;stroke-linejoin:round;stroke:rgb(0%,0%,0%);stroke-opacity:1;stroke-miterlimit:10;" d="M 560.71875 109.261719 C 560.71875 114.664062 552.621094 114.664062 552.621094 109.261719 C 552.621094 103.863281 560.71875 103.863281 560.71875 109.261719 "/>
<path style="fill-rule:nonzero;fill:rgb(50.196078%,50.196078%,100%);fill-opacity:1;stroke-width:1.5;stroke-linecap:round;stroke-linejoin:round;stroke:rgb(0%,0%,0%);stroke-opacity:1;stroke-miterlimit:10;" d="M 549.453125 100.820312 C 549.453125 106.222656 541.355469 106.222656 541.355469 100.820312 C 541.355469 95.421875 549.453125 95.421875 549.453125 100.820312 "/>
<path style="fill:none;stroke-width:1.5;stroke-linecap:round;stroke-linejoin:round;stroke:rgb(0%,0%,0%);stroke-opacity:1;stroke-miterlimit:10;" d="M 466.972656 225.480469 L 568.464844 136.023438 "/>
<path style="fill:none;stroke-width:1.5;stroke-linecap:round;stroke-linejoin:round;stroke:rgb(0%,0%,0%);stroke-opacity:1;stroke-miterlimit:10;" d="M 466.199219 224.675781 L 558.761719 127.425781 "/>
<path style="fill:none;stroke-width:1.5;stroke-linecap:round;stroke-linejoin:round;stroke:rgb(0%,0%,0%);stroke-opacity:1;stroke-miterlimit:10;" d="M 465.351562 223.9375 L 548.730469 119.234375 "/>
<path style="fill:none;stroke-width:1.5;stroke-linecap:round;stroke-linejoin:round;stroke:rgb(0%,0%,0%);stroke-opacity:1;stroke-miterlimit:10;" d="M 464.441406 223.277344 L 538.375 111.453125 "/>
<path style="fill-rule:nonzero;fill:rgb(100%,100%,100%);fill-opacity:1;stroke-width:1.5;stroke-linecap:round;stroke-linejoin:round;stroke:rgb(0%,0%,0%);stroke-opacity:1;stroke-miterlimit:10;" d="M 532.550781 89.523438 C 532.550781 94.925781 524.449219 94.925781 524.449219 89.523438 C 524.449219 84.125 532.550781 84.125 532.550781 89.523438 "/>
<path style="fill-rule:nonzero;fill:rgb(100%,100%,100%);fill-opacity:1;stroke-width:1.5;stroke-linecap:round;stroke-linejoin:round;stroke:rgb(0%,0%,0%);stroke-opacity:1;stroke-miterlimit:10;" d="M 520.4375 82.347656 C 520.4375 87.746094 512.339844 87.746094 512.339844 82.347656 C 512.339844 76.949219 520.4375 76.949219 520.4375 82.347656 "/>
<path style="fill-rule:nonzero;fill:rgb(100%,100%,100%);fill-opacity:1;stroke-width:1.5;stroke-linecap:round;stroke-linejoin:round;stroke:rgb(0%,0%,0%);stroke-opacity:1;stroke-miterlimit:10;" d="M 508.023438 75.710938 C 508.023438 81.113281 499.925781 81.113281 499.925781 75.710938 C 499.925781 70.3125 508.023438 70.3125 508.023438 75.710938 "/>
<path style="fill-rule:nonzero;fill:rgb(50.196078%,50.196078%,100%);fill-opacity:1;stroke-width:1.5;stroke-linecap:round;stroke-linejoin:round;stroke:rgb(0%,0%,0%);stroke-opacity:1;stroke-miterlimit:10;" d="M 495.328125 69.628906 C 495.328125 75.03125 487.226562 75.03125 487.226562 69.628906 C 487.226562 64.230469 495.328125 64.230469 495.328125 69.628906 "/>
<path style="fill:none;stroke-width:1.5;stroke-linecap:round;stroke-linejoin:round;stroke:rgb(0%,0%,0%);stroke-opacity:1;stroke-miterlimit:10;" d="M 441.265625 208.46875 L 520.960938 99.804688 "/>
<path style="fill:none;stroke-width:1.5;stroke-linecap:round;stroke-linejoin:round;stroke:rgb(0%,0%,0%);stroke-opacity:1;stroke-miterlimit:10;" d="M 440.332031 207.847656 L 509.78125 93.25 "/>
<path style="fill:none;stroke-width:1.5;stroke-linecap:round;stroke-linejoin:round;stroke:rgb(0%,0%,0%);stroke-opacity:1;stroke-miterlimit:10;" d="M 439.347656 207.304688 L 498.355469 87.152344 "/>
<path style="fill:none;stroke-width:1.5;stroke-linecap:round;stroke-linejoin:round;stroke:rgb(0%,0%,0%);stroke-opacity:1;stroke-miterlimit:10;" d="M 438.316406 206.855469 L 486.6875 81.523438 "/>
<path style="fill-rule:nonzero;fill:rgb(100%,100%,100%);fill-opacity:1;stroke-width:1.5;stroke-linecap:round;stroke-linejoin:round;stroke:rgb(0%,0%,0%);stroke-opacity:1;stroke-miterlimit:10;" d="M 476.542969 61.851562 C 476.542969 67.25 468.445312 67.25 468.445312 61.851562 C 468.445312 56.449219 476.542969 56.449219 476.542969 61.851562 "/>
<path style="fill-rule:nonzero;fill:rgb(100%,100%,100%);fill-opacity:1;stroke-width:1.5;stroke-linecap:round;stroke-linejoin:round;stroke:rgb(0%,0%,0%);stroke-opacity:1;stroke-miterlimit:10;" d="M 463.265625 57.171875 C 463.265625 62.574219 455.167969 62.574219 455.167969 57.171875 C 455.167969 51.773438 463.265625 51.773438 463.265625 57.171875 "/>
<path style="fill-rule:nonzero;fill:rgb(100%,100%,100%);fill-opacity:1;stroke-width:1.5;stroke-linecap:round;stroke-linejoin:round;stroke:rgb(0%,0%,0%);stroke-opacity:1;stroke-miterlimit:10;" d="M 449.796875 53.085938 C 449.796875 58.484375 441.695312 58.484375 441.695312 53.085938 C 441.695312 47.6875 449.796875 47.6875 449.796875 53.085938 "/>
<path style="fill-rule:nonzero;fill:rgb(50.196078%,50.196078%,100%);fill-opacity:1;stroke-width:1.5;stroke-linecap:round;stroke-linejoin:round;stroke:rgb(0%,0%,0%);stroke-opacity:1;stroke-miterlimit:10;" d="M 436.15625 49.597656 C 436.15625 55 428.058594 55 428.058594 49.597656 C 428.058594 44.199219 436.15625 44.199219 436.15625 49.597656 "/>
<path style="fill:none;stroke-width:1.5;stroke-linecap:round;stroke-linejoin:round;stroke:rgb(0%,0%,0%);stroke-opacity:1;stroke-miterlimit:10;" d="M 412.910156 196.332031 L 467.332031 73.503906 "/>
<path style="fill:none;stroke-width:1.5;stroke-linecap:round;stroke-linejoin:round;stroke:rgb(0%,0%,0%);stroke-opacity:1;stroke-miterlimit:10;" d="M 411.863281 195.921875 L 455.101562 69.234375 "/>
<path style="fill:none;stroke-width:1.5;stroke-linecap:round;stroke-linejoin:round;stroke:rgb(0%,0%,0%);stroke-opacity:1;stroke-miterlimit:10;" d="M 410.785156 195.605469 L 442.710938 65.464844 "/>
<path style="fill:none;stroke-width:1.5;stroke-linecap:round;stroke-linejoin:round;stroke:rgb(0%,0%,0%);stroke-opacity:1;stroke-miterlimit:10;" d="M 409.683594 195.386719 L 430.171875 62.199219 "/>
<path style="fill-rule:nonzero;fill:rgb(100%,100%,100%);fill-opacity:1;stroke-width:1.5;stroke-linecap:round;stroke-linejoin:round;stroke:rgb(0%,0%,0%);stroke-opacity:1;stroke-miterlimit:10;" d="M 416.214844 45.632812 C 416.214844 51.03125 408.117188 51.03125 408.117188 45.632812 C 408.117188 40.230469 416.214844 40.230469 416.214844 45.632812 "/>
<path style="fill-rule:nonzero;fill:rgb(100%,100%,100%);fill-opacity:1;stroke-width:1.5;stroke-linecap:round;stroke-linejoin:round;stroke:rgb(0%,0%,0%);stroke-opacity:1;stroke-miterlimit:10;" d="M 402.28125 43.636719 C 402.28125 49.035156 394.183594 49.035156 394.183594 43.636719 C 394.183594 38.234375 402.28125 38.234375 402.28125 43.636719 "/>
<path style="fill-rule:nonzero;fill:rgb(100%,100%,100%);fill-opacity:1;stroke-width:1.5;stroke-linecap:round;stroke-linejoin:round;stroke:rgb(0%,0%,0%);stroke-opacity:1;stroke-miterlimit:10;" d="M 388.273438 42.253906 C 388.273438 47.65625 380.171875 47.65625 380.171875 42.253906 C 380.171875 36.855469 388.273438 36.855469 388.273438 42.253906 "/>
<path style="fill-rule:nonzero;fill:rgb(50.196078%,50.196078%,100%);fill-opacity:1;stroke-width:1.5;stroke-linecap:round;stroke-linejoin:round;stroke:rgb(0%,0%,0%);stroke-opacity:1;stroke-miterlimit:10;" d="M 374.214844 41.496094 C 374.214844 46.894531 366.117188 46.894531 366.117188 41.496094 C 366.117188 36.09375 374.214844 36.09375 374.214844 41.496094 "/>
<path style="fill:none;stroke-width:1.5;stroke-linecap:round;stroke-linejoin:round;stroke:rgb(0%,0%,0%);stroke-opacity:1;stroke-miterlimit:10;" d="M 382.828125 189.472656 L 409.617188 58.121094 "/>
<path style="fill:none;stroke-width:1.5;stroke-linecap:round;stroke-linejoin:round;stroke:rgb(0%,0%,0%);stroke-opacity:1;stroke-miterlimit:10;" d="M 381.714844 189.292969 L 396.796875 56.300781 "/>
<path style="fill:none;stroke-width:1.5;stroke-linecap:round;stroke-linejoin:round;stroke:rgb(0%,0%,0%);stroke-opacity:1;stroke-miterlimit:10;" d="M 380.59375 189.21875 L 383.90625 55 "/>
<path style="fill:none;stroke-width:1.5;stroke-linecap:round;stroke-linejoin:round;stroke:rgb(0%,0%,0%);stroke-opacity:1;stroke-miterlimit:10;" d="M 379.480469 189.238281 L 370.96875 54.21875 "/>
<path style="fill:none;stroke-width:1.5;stroke-linecap:round;stroke-linejoin:round;stroke:rgb(0%,0%,0%);stroke-opacity:1;stroke-miterlimit:10;" d="M 392.566406 295.027344 L 448.136719 242.652344 "/>
<path style="fill:none;stroke-width:1.5;stroke-linecap:round;stroke-linejoin:round;stroke:rgb(0%,0%,0%);stroke-opacity:1;stroke-miterlimit:10;" d="M 389.792969 292.808594 L 427.222656 229.710938 "/>
<path style="fill:none;stroke-width:1.5;stroke-linecap:round;stroke-linejoin:round;stroke:rgb(0%,0%,0%);stroke-opacity:1;stroke-miterlimit:10;" d="M 386.445312 291.421875 L 404.59375 220.335938 "/>
<path style="fill:none;stroke-width:1.5;stroke-linecap:round;stroke-linejoin:round;stroke:rgb(0%,0%,0%);stroke-opacity:1;stroke-miterlimit:10;" d="M 382.914062 291.03125 L 380.65625 214.703125 "/>
<path style="fill-rule:nonzero;fill:rgb(100%,100%,100%);fill-opacity:1;stroke-width:1.5;stroke-linecap:round;stroke-linejoin:round;stroke:rgb(0%,0%,0%);stroke-opacity:1;stroke-miterlimit:10;" d="M 343.769531 201.960938 C 343.769531 207.359375 335.667969 207.359375 335.667969 201.960938 C 335.667969 196.558594 343.769531 196.558594 343.769531 201.960938 "/>
<path style="fill-rule:nonzero;fill:rgb(100%,100%,100%);fill-opacity:1;stroke-width:1.5;stroke-linecap:round;stroke-linejoin:round;stroke:rgb(0%,0%,0%);stroke-opacity:1;stroke-miterlimit:10;" d="M 316.300781 207.988281 C 316.300781 213.386719 308.203125 213.386719 308.203125 207.988281 C 308.203125 202.585938 316.300781 202.585938 316.300781 207.988281 "/>
<path style="fill-rule:nonzero;fill:rgb(100%,100%,100%);fill-opacity:1;stroke-width:1.5;stroke-linecap:round;stroke-linejoin:round;stroke:rgb(0%,0%,0%);stroke-opacity:1;stroke-miterlimit:10;" d="M 290.324219 218.746094 C 290.324219 224.148438 282.222656 224.148438 282.222656 218.746094 C 282.222656 213.347656 290.324219 213.347656 290.324219 218.746094 "/>
<path style="fill-rule:nonzero;fill:rgb(50.196078%,50.196078%,100%);fill-opacity:1;stroke-width:1.5;stroke-linecap:round;stroke-linejoin:round;stroke:rgb(0%,0%,0%);stroke-opacity:1;stroke-miterlimit:10;" d="M 266.640625 233.910156 C 266.640625 239.308594 258.539062 239.308594 258.539062 233.910156 C 258.539062 228.507812 266.640625 228.507812 266.640625 233.910156 "/>
<path style="fill-rule:nonzero;fill:rgb(100%,100%,100%);fill-opacity:1;stroke-width:1.5;stroke-linecap:round;stroke-linejoin:round;stroke:rgb(0%,0%,0%);stroke-opacity:1;stroke-miterlimit:10;" d="M 353.882812 41.496094 C 353.882812 46.894531 345.785156 46.894531 345.785156 41.496094 C 345.785156 36.09375 353.882812 36.09375 353.882812 41.496094 "/>
<path style="fill-rule:nonzero;fill:rgb(100%,100%,100%);fill-opacity:1;stroke-width:1.5;stroke-linecap:round;stroke-linejoin:round;stroke:rgb(0%,0%,0%);stroke-opacity:1;stroke-miterlimit:10;" d="M 339.828125 42.253906 C 339.828125 47.65625 331.726562 47.65625 331.726562 42.253906 C 331.726562 36.855469 339.828125 36.855469 339.828125 42.253906 "/>
<path style="fill-rule:nonzero;fill:rgb(100%,100%,100%);fill-opacity:1;stroke-width:1.5;stroke-linecap:round;stroke-linejoin:round;stroke:rgb(0%,0%,0%);stroke-opacity:1;stroke-miterlimit:10;" d="M 325.816406 43.636719 C 325.816406 49.035156 317.71875 49.035156 317.71875 43.636719 C 317.71875 38.234375 325.816406 38.234375 325.816406 43.636719 "/>
<path style="fill-rule:nonzero;fill:rgb(50.196078%,50.196078%,100%);fill-opacity:1;stroke-width:1.5;stroke-linecap:round;stroke-linejoin:round;stroke:rgb(0%,0%,0%);stroke-opacity:1;stroke-miterlimit:10;" d="M 311.882812 45.632812 C 311.882812 51.03125 303.785156 51.03125 303.785156 45.632812 C 303.785156 40.230469 311.882812 40.230469 311.882812 45.632812 "/>
<path style="fill:none;stroke-width:1.5;stroke-linecap:round;stroke-linejoin:round;stroke:rgb(0%,0%,0%);stroke-opacity:1;stroke-miterlimit:10;" d="M 340.519531 189.238281 L 349.03125 54.21875 "/>
<path style="fill:none;stroke-width:1.5;stroke-linecap:round;stroke-linejoin:round;stroke:rgb(0%,0%,0%);stroke-opacity:1;stroke-miterlimit:10;" d="M 339.40625 189.21875 L 336.09375 55 "/>
<path style="fill:none;stroke-width:1.5;stroke-linecap:round;stroke-linejoin:round;stroke:rgb(0%,0%,0%);stroke-opacity:1;stroke-miterlimit:10;" d="M 338.285156 189.292969 L 323.203125 56.300781 "/>
<path style="fill:none;stroke-width:1.5;stroke-linecap:round;stroke-linejoin:round;stroke:rgb(0%,0%,0%);stroke-opacity:1;stroke-miterlimit:10;" d="M 337.171875 189.472656 L 310.382812 58.121094 "/>
<path style="fill-rule:nonzero;fill:rgb(100%,100%,100%);fill-opacity:1;stroke-width:1.5;stroke-linecap:round;stroke-linejoin:round;stroke:rgb(0%,0%,0%);stroke-opacity:1;stroke-miterlimit:10;" d="M 291.941406 49.597656 C 291.941406 55 283.84375 55 283.84375 49.597656 C 283.84375 44.199219 291.941406 44.199219 291.941406 49.597656 "/>
<path style="fill-rule:nonzero;fill:rgb(100%,100%,100%);fill-opacity:1;stroke-width:1.5;stroke-linecap:round;stroke-linejoin:round;stroke:rgb(0%,0%,0%);stroke-opacity:1;stroke-miterlimit:10;" d="M 278.304688 53.085938 C 278.304688 58.484375 270.203125 58.484375 270.203125 53.085938 C 270.203125 47.6875 278.304688 47.6875 278.304688 53.085938 "/>
<path style="fill-rule:nonzero;fill:rgb(100%,100%,100%);fill-opacity:1;stroke-width:1.5;stroke-linecap:round;stroke-linejoin:round;stroke:rgb(0%,0%,0%);stroke-opacity:1;stroke-miterlimit:10;" d="M 264.832031 57.171875 C 264.832031 62.574219 256.734375 62.574219 256.734375 57.171875 C 256.734375 51.773438 264.832031 51.773438 264.832031 57.171875 "/>
<path style="fill-rule:nonzero;fill:rgb(50.196078%,50.196078%,100%);fill-opacity:1;stroke-width:1.5;stroke-linecap:round;stroke-linejoin:round;stroke:rgb(0%,0%,0%);stroke-opacity:1;stroke-miterlimit:10;" d="M 251.554688 61.851562 C 251.554688 67.25 243.457031 67.25 243.457031 61.851562 C 243.457031 56.449219 251.554688 56.449219 251.554688 61.851562 "/>
<path style="fill:none;stroke-width:1.5;stroke-linecap:round;stroke-linejoin:round;stroke:rgb(0%,0%,0%);stroke-opacity:1;stroke-miterlimit:10;" d="M 310.316406 195.386719 L 289.828125 62.199219 "/>
<path style="fill:none;stroke-width:1.5;stroke-linecap:round;stroke-linejoin:round;stroke:rgb(0%,0%,0%);stroke-opacity:1;stroke-miterlimit:10;" d="M 309.214844 195.605469 L 277.289062 65.464844 "/>
<path style="fill:none;stroke-width:1.5;stroke-linecap:round;stroke-linejoin:round;stroke:rgb(0%,0%,0%);stroke-opacity:1;stroke-miterlimit:10;" d="M 308.136719 195.921875 L 264.898438 69.234375 "/>
<path style="fill:none;stroke-width:1.5;stroke-linecap:round;stroke-linejoin:round;stroke:rgb(0%,0%,0%);stroke-opacity:1;stroke-miterlimit:10;" d="M 307.089844 196.332031 L 252.667969 73.503906 "/>
<path style="fill-rule:nonzero;fill:rgb(100%,100%,100%);fill-opacity:1;stroke-width:1.5;stroke-linecap:round;stroke-linejoin:round;stroke:rgb(0%,0%,0%);stroke-opacity:1;stroke-miterlimit:10;" d="M 232.773438 69.628906 C 232.773438 75.03125 224.671875 75.03125 224.671875 69.628906 C 224.671875 64.230469 232.773438 64.230469 232.773438 69.628906 "/>
<path style="fill-rule:nonzero;fill:rgb(100%,100%,100%);fill-opacity:1;stroke-width:1.5;stroke-linecap:round;stroke-linejoin:round;stroke:rgb(0%,0%,0%);stroke-opacity:1;stroke-miterlimit:10;" d="M 220.074219 75.710938 C 220.074219 81.113281 211.976562 81.113281 211.976562 75.710938 C 211.976562 70.3125 220.074219 70.3125 220.074219 75.710938 "/>
<path style="fill-rule:nonzero;fill:rgb(100%,100%,100%);fill-opacity:1;stroke-width:1.5;stroke-linecap:round;stroke-linejoin:round;stroke:rgb(0%,0%,0%);stroke-opacity:1;stroke-miterlimit:10;" d="M 207.660156 82.347656 C 207.660156 87.746094 199.5625 87.746094 199.5625 82.347656 C 199.5625 76.949219 207.660156 76.949219 207.660156 82.347656 "/>
<path style="fill-rule:nonzero;fill:rgb(50.196078%,50.196078%,100%);fill-opacity:1;stroke-width:1.5;stroke-linecap:round;stroke-linejoin:round;stroke:rgb(0%,0%,0%);stroke-opacity:1;stroke-miterlimit:10;" d="M 195.550781 89.523438 C 195.550781 94.925781 187.449219 94.925781 187.449219 89.523438 C 187.449219 84.125 195.550781 84.125 195.550781 89.523438 "/>
<path style="fill:none;stroke-width:1.5;stroke-linecap:round;stroke-linejoin:round;stroke:rgb(0%,0%,0%);stroke-opacity:1;stroke-miterlimit:10;" d="M 281.683594 206.855469 L 233.3125 81.523438 "/>
<path style="fill:none;stroke-width:1.5;stroke-linecap:round;stroke-linejoin:round;stroke:rgb(0%,0%,0%);stroke-opacity:1;stroke-miterlimit:10;" d="M 280.652344 207.304688 L 221.644531 87.152344 "/>
<path style="fill:none;stroke-width:1.5;stroke-linecap:round;stroke-linejoin:round;stroke:rgb(0%,0%,0%);stroke-opacity:1;stroke-miterlimit:10;" d="M 279.667969 207.847656 L 210.21875 93.25 "/>
<path style="fill:none;stroke-width:1.5;stroke-linecap:round;stroke-linejoin:round;stroke:rgb(0%,0%,0%);stroke-opacity:1;stroke-miterlimit:10;" d="M 278.734375 208.46875 L 199.039062 99.804688 "/>
<path style="fill-rule:nonzero;fill:rgb(100%,100%,100%);fill-opacity:1;stroke-width:1.5;stroke-linecap:round;stroke-linejoin:round;stroke:rgb(0%,0%,0%);stroke-opacity:1;stroke-miterlimit:10;" d="M 178.644531 100.820312 C 178.644531 106.222656 170.546875 106.222656 170.546875 100.820312 C 170.546875 95.421875 178.644531 95.421875 178.644531 100.820312 "/>
<path style="fill-rule:nonzero;fill:rgb(100%,100%,100%);fill-opacity:1;stroke-width:1.5;stroke-linecap:round;stroke-linejoin:round;stroke:rgb(0%,0%,0%);stroke-opacity:1;stroke-miterlimit:10;" d="M 167.378906 109.261719 C 167.378906 114.664062 159.28125 114.664062 159.28125 109.261719 C 159.28125 103.863281 167.378906 103.863281 167.378906 109.261719 "/>
<path style="fill-rule:nonzero;fill:rgb(100%,100%,100%);fill-opacity:1;stroke-width:1.5;stroke-linecap:round;stroke-linejoin:round;stroke:rgb(0%,0%,0%);stroke-opacity:1;stroke-miterlimit:10;" d="M 156.5 118.191406 C 156.5 123.59375 148.398438 123.59375 148.398438 118.191406 C 148.398438 112.792969 156.5 112.792969 156.5 118.191406 "/>
<path style="fill-rule:nonzero;fill:rgb(50.196078%,50.196078%,100%);fill-opacity:1;stroke-width:1.5;stroke-linecap:round;stroke-linejoin:round;stroke:rgb(0%,0%,0%);stroke-opacity:1;stroke-miterlimit:10;" d="M 146.023438 127.59375 C 146.023438 132.996094 137.921875 132.996094 137.921875 127.59375 C 137.921875 122.195312 146.023438 122.195312 146.023438 127.59375 "/>
<path style="fill:none;stroke-width:1.5;stroke-linecap:round;stroke-linejoin:round;stroke:rgb(0%,0%,0%);stroke-opacity:1;stroke-miterlimit:10;" d="M 255.558594 223.277344 L 181.625 111.453125 "/>
<path style="fill:none;stroke-width:1.5;stroke-linecap:round;stroke-linejoin:round;stroke:rgb(0%,0%,0%);stroke-opacity:1;stroke-miterlimit:10;" d="M 254.648438 223.9375 L 171.269531 119.234375 "/>
<path style="fill:none;stroke-width:1.5;stroke-linecap:round;stroke-linejoin:round;stroke:rgb(0%,0%,0%);stroke-opacity:1;stroke-miterlimit:10;" d="M 253.800781 224.675781 L 161.238281 127.425781 "/>
<path style="fill:none;stroke-width:1.5;stroke-linecap:round;stroke-linejoin:round;stroke:rgb(0%,0%,0%);stroke-opacity:1;stroke-miterlimit:10;" d="M 253.027344 225.480469 L 151.535156 136.023438 "/>
<path style="fill:none;stroke-width:1.5;stroke-linecap:round;stroke-linejoin:round;stroke:rgb(0%,0%,0%);stroke-opacity:1;stroke-miterlimit:10;" d="M 337.085938 291.03125 L 339.34375 214.703125 "/>
<path style="fill:none;stroke-width:1.5;stroke-linecap:round;stroke-linejoin:round;stroke:rgb(0%,0%,0%);stroke-opacity:1;stroke-miterlimit:10;" d="M 333.554688 291.421875 L 315.40625 220.335938 "/>
<path style="fill:none;stroke-width:1.5;stroke-linecap:round;stroke-linejoin:round;stroke:rgb(0%,0%,0%);stroke-opacity:1;stroke-miterlimit:10;" d="M 330.207031 292.808594 L 292.777344 229.710938 "/>
<path style="fill:none;stroke-width:1.5;stroke-linecap:round;stroke-linejoin:round;stroke:rgb(0%,0%,0%);stroke-opacity:1;stroke-miterlimit:10;" d="M 327.433594 295.027344 L 271.863281 242.652344 "/>
<path style="fill-rule:nonzero;fill:rgb(100%,100%,100%);fill-opacity:1;stroke-width:1.5;stroke-linecap:round;stroke-linejoin:round;stroke:rgb(0%,0%,0%);stroke-opacity:1;stroke-miterlimit:10;" d="M 237.957031 262.589844 C 237.957031 267.988281 229.859375 267.988281 229.859375 262.589844 C 229.859375 257.1875 237.957031 257.1875 237.957031 262.589844 "/>
<path style="fill-rule:nonzero;fill:rgb(100%,100%,100%);fill-opacity:1;stroke-width:1.5;stroke-linecap:round;stroke-linejoin:round;stroke:rgb(0%,0%,0%);stroke-opacity:1;stroke-miterlimit:10;" d="M 222.796875 286.273438 C 222.796875 291.671875 214.699219 291.671875 214.699219 286.273438 C 214.699219 280.871094 222.796875 280.871094 222.796875 286.273438 "/>
<path style="fill-rule:nonzero;fill:rgb(100%,100%,100%);fill-opacity:1;stroke-width:1.5;stroke-linecap:round;stroke-linejoin:round;stroke:rgb(0%,0%,0%);stroke-opacity:1;stroke-miterlimit:10;" d="M 212.035156 312.253906 C 212.035156 317.652344 203.9375 317.652344 203.9375 312.253906 C 203.9375 306.851562 212.035156 306.851562 212.035156 312.253906 "/>
<path style="fill-rule:nonzero;fill:rgb(50.196078%,50.196078%,100%);fill-opacity:1;stroke-width:1.5;stroke-linecap:round;stroke-linejoin:round;stroke:rgb(0%,0%,0%);stroke-opacity:1;stroke-miterlimit:10;" d="M 206.011719 339.71875 C 206.011719 345.121094 197.910156 345.121094 197.910156 339.71875 C 197.910156 334.320312 206.011719 334.320312 206.011719 339.71875 "/>
<path style="fill-rule:nonzero;fill:rgb(100%,100%,100%);fill-opacity:1;stroke-width:1.5;stroke-linecap:round;stroke-linejoin:round;stroke:rgb(0%,0%,0%);stroke-opacity:1;stroke-miterlimit:10;" d="M 131.644531 141.972656 C 131.644531 147.371094 123.546875 147.371094 123.546875 141.972656 C 123.546875 136.570312 131.644531 136.570312 131.644531 141.972656 "/>
<path style="fill-rule:nonzero;fill:rgb(100%,100%,100%);fill-opacity:1;stroke-width:1.5;stroke-linecap:round;stroke-linejoin:round;stroke:rgb(0%,0%,0%);stroke-opacity:1;stroke-miterlimit:10;" d="M 122.242188 152.449219 C 122.242188 157.847656 114.144531 157.847656 114.144531 152.449219 C 114.144531 147.046875 122.242188 147.046875 122.242188 152.449219 "/>
<path style="fill-rule:nonzero;fill:rgb(100%,100%,100%);fill-opacity:1;stroke-width:1.5;stroke-linecap:round;stroke-linejoin:round;stroke:rgb(0%,0%,0%);stroke-opacity:1;stroke-miterlimit:10;" d="M 113.3125 163.332031 C 113.3125 168.730469 105.210938 168.730469 105.210938 163.332031 C 105.210938 157.929688 113.3125 157.929688 113.3125 163.332031 "/>
<path style="fill-rule:nonzero;fill:rgb(50.196078%,50.196078%,100%);fill-opacity:1;stroke-width:1.5;stroke-linecap:round;stroke-linejoin:round;stroke:rgb(0%,0%,0%);stroke-opacity:1;stroke-miterlimit:10;" d="M 104.871094 174.597656 C 104.871094 179.996094 96.769531 179.996094 96.769531 174.597656 C 96.769531 169.195312 104.871094 169.195312 104.871094 174.597656 "/>
<path style="fill:none;stroke-width:1.5;stroke-linecap:round;stroke-linejoin:round;stroke:rgb(0%,0%,0%);stroke-opacity:1;stroke-miterlimit:10;" d="M 225.480469 253.027344 L 136.023438 151.535156 "/>
<path style="fill:none;stroke-width:1.5;stroke-linecap:round;stroke-linejoin:round;stroke:rgb(0%,0%,0%);stroke-opacity:1;stroke-miterlimit:10;" d="M 224.675781 253.800781 L 127.425781 161.238281 "/>
<path style="fill:none;stroke-width:1.5;stroke-linecap:round;stroke-linejoin:round;stroke:rgb(0%,0%,0%);stroke-opacity:1;stroke-miterlimit:10;" d="M 223.9375 254.648438 L 119.234375 171.269531 "/>
<path style="fill:none;stroke-width:1.5;stroke-linecap:round;stroke-linejoin:round;stroke:rgb(0%,0%,0%);stroke-opacity:1;stroke-miterlimit:10;" d="M 223.277344 255.558594 L 111.453125 181.625 "/>
<path style="fill-rule:nonzero;fill:rgb(100%,100%,100%);fill-opacity:1;stroke-width:1.5;stroke-linecap:round;stroke-linejoin:round;stroke:rgb(0%,0%,0%);stroke-opacity:1;stroke-miterlimit:10;" d="M 93.574219 191.5 C 93.574219 196.902344 85.476562 196.902344 85.476562 191.5 C 85.476562 186.101562 93.574219 186.101562 93.574219 191.5 "/>
<path style="fill-rule:nonzero;fill:rgb(100%,100%,100%);fill-opacity:1;stroke-width:1.5;stroke-linecap:round;stroke-linejoin:round;stroke:rgb(0%,0%,0%);stroke-opacity:1;stroke-miterlimit:10;" d="M 86.398438 203.609375 C 86.398438 209.011719 78.296875 209.011719 78.296875 203.609375 C 78.296875 198.210938 86.398438 198.210938 86.398438 203.609375 "/>
<path style="fill-rule:nonzero;fill:rgb(100%,100%,100%);fill-opacity:1;stroke-width:1.5;stroke-linecap:round;stroke-linejoin:round;stroke:rgb(0%,0%,0%);stroke-opacity:1;stroke-miterlimit:10;" d="M 79.761719 216.027344 C 79.761719 221.425781 71.660156 221.425781 71.660156 216.027344 C 71.660156 210.625 79.761719 210.625 79.761719 216.027344 "/>
<path style="fill-rule:nonzero;fill:rgb(50.196078%,50.196078%,100%);fill-opacity:1;stroke-width:1.5;stroke-linecap:round;stroke-linejoin:round;stroke:rgb(0%,0%,0%);stroke-opacity:1;stroke-miterlimit:10;" d="M 73.679688 228.722656 C 73.679688 234.121094 65.582031 234.121094 65.582031 228.722656 C 65.582031 223.320312 73.679688 223.320312 73.679688 228.722656 "/>
<path style="fill:none;stroke-width:1.5;stroke-linecap:round;stroke-linejoin:round;stroke:rgb(0%,0%,0%);stroke-opacity:1;stroke-miterlimit:10;" d="M 208.46875 278.734375 L 99.804688 199.039062 "/>
<path style="fill:none;stroke-width:1.5;stroke-linecap:round;stroke-linejoin:round;stroke:rgb(0%,0%,0%);stroke-opacity:1;stroke-miterlimit:10;" d="M 207.847656 279.667969 L 93.25 210.21875 "/>
<path style="fill:none;stroke-width:1.5;stroke-linecap:round;stroke-linejoin:round;stroke:rgb(0%,0%,0%);stroke-opacity:1;stroke-miterlimit:10;" d="M 207.304688 280.652344 L 87.152344 221.644531 "/>
<path style="fill:none;stroke-width:1.5;stroke-linecap:round;stroke-linejoin:round;stroke:rgb(0%,0%,0%);stroke-opacity:1;stroke-miterlimit:10;" d="M 206.855469 281.683594 L 81.523438 233.3125 "/>
<path style="fill-rule:nonzero;fill:rgb(100%,100%,100%);fill-opacity:1;stroke-width:1.5;stroke-linecap:round;stroke-linejoin:round;stroke:rgb(0%,0%,0%);stroke-opacity:1;stroke-miterlimit:10;" d="M 65.898438 247.503906 C 65.898438 252.90625 57.800781 252.90625 57.800781 247.503906 C 57.800781 242.105469 65.898438 242.105469 65.898438 247.503906 "/>
<path style="fill-rule:nonzero;fill:rgb(100%,100%,100%);fill-opacity:1;stroke-width:1.5;stroke-linecap:round;stroke-linejoin:round;stroke:rgb(0%,0%,0%);stroke-opacity:1;stroke-miterlimit:10;" d="M 61.222656 260.78125 C 61.222656 266.183594 53.121094 266.183594 53.121094 260.78125 C 53.121094 255.382812 61.222656 255.382812 61.222656 260.78125 "/>
<path style="fill-rule:nonzero;fill:rgb(100%,100%,100%);fill-opacity:1;stroke-width:1.5;stroke-linecap:round;stroke-linejoin:round;stroke:rgb(0%,0%,0%);stroke-opacity:1;stroke-miterlimit:10;" d="M 57.136719 274.253906 C 57.136719 279.652344 49.035156 279.652344 49.035156 274.253906 C 49.035156 268.855469 57.136719 268.855469 57.136719 274.253906 "/>
<path style="fill-rule:nonzero;fill:rgb(50.196078%,50.196078%,100%);fill-opacity:1;stroke-width:1.5;stroke-linecap:round;stroke-linejoin:round;stroke:rgb(0%,0%,0%);stroke-opacity:1;stroke-miterlimit:10;" d="M 53.648438 287.890625 C 53.648438 293.292969 45.546875 293.292969 45.546875 287.890625 C 45.546875 282.492188 53.648438 282.492188 53.648438 287.890625 "/>
<path style="fill:none;stroke-width:1.5;stroke-linecap:round;stroke-linejoin:round;stroke:rgb(0%,0%,0%);stroke-opacity:1;stroke-miterlimit:10;" d="M 196.332031 307.089844 L 73.503906 252.667969 "/>
<path style="fill:none;stroke-width:1.5;stroke-linecap:round;stroke-linejoin:round;stroke:rgb(0%,0%,0%);stroke-opacity:1;stroke-miterlimit:10;" d="M 195.921875 308.136719 L 69.234375 264.898438 "/>
<path style="fill:none;stroke-width:1.5;stroke-linecap:round;stroke-linejoin:round;stroke:rgb(0%,0%,0%);stroke-opacity:1;stroke-miterlimit:10;" d="M 195.605469 309.214844 L 65.464844 277.289062 "/>
<path style="fill:none;stroke-width:1.5;stroke-linecap:round;stroke-linejoin:round;stroke:rgb(0%,0%,0%);stroke-opacity:1;stroke-miterlimit:10;" d="M 195.386719 310.316406 L 62.199219 289.828125 "/>
<path style="fill-rule:nonzero;fill:rgb(100%,100%,100%);fill-opacity:1;stroke-width:1.5;stroke-linecap:round;stroke-linejoin:round;stroke:rgb(0%,0%,0%);stroke-opacity:1;stroke-miterlimit:10;" d="M 49.683594 307.832031 C 49.683594 313.234375 41.582031 313.234375 41.582031 307.832031 C 41.582031 302.433594 49.683594 302.433594 49.683594 307.832031 "/>
<path style="fill-rule:nonzero;fill:rgb(100%,100%,100%);fill-opacity:1;stroke-width:1.5;stroke-linecap:round;stroke-linejoin:round;stroke:rgb(0%,0%,0%);stroke-opacity:1;stroke-miterlimit:10;" d="M 47.683594 321.769531 C 47.683594 327.167969 39.585938 327.167969 39.585938 321.769531 C 39.585938 316.367188 47.683594 316.367188 47.683594 321.769531 "/>
<path style="fill-rule:nonzero;fill:rgb(100%,100%,100%);fill-opacity:1;stroke-width:1.5;stroke-linecap:round;stroke-linejoin:round;stroke:rgb(0%,0%,0%);stroke-opacity:1;stroke-miterlimit:10;" d="M 46.304688 335.777344 C 46.304688 341.175781 38.207031 341.175781 38.207031 335.777344 C 38.207031 330.378906 46.304688 330.378906 46.304688 335.777344 "/>
<path style="fill-rule:nonzero;fill:rgb(50.196078%,50.196078%,100%);fill-opacity:1;stroke-width:1.5;stroke-linecap:round;stroke-linejoin:round;stroke:rgb(0%,0%,0%);stroke-opacity:1;stroke-miterlimit:10;" d="M 45.546875 349.835938 C 45.546875 355.234375 37.445312 355.234375 37.445312 349.835938 C 37.445312 344.433594 45.546875 344.433594 45.546875 349.835938 "/>
<path style="fill:none;stroke-width:1.5;stroke-linecap:round;stroke-linejoin:round;stroke:rgb(0%,0%,0%);stroke-opacity:1;stroke-miterlimit:10;" d="M 189.472656 337.171875 L 58.121094 310.382812 "/>
<path style="fill:none;stroke-width:1.5;stroke-linecap:round;stroke-linejoin:round;stroke:rgb(0%,0%,0%);stroke-opacity:1;stroke-miterlimit:10;" d="M 189.292969 338.285156 L 56.300781 323.203125 "/>
<path style="fill:none;stroke-width:1.5;stroke-linecap:round;stroke-linejoin:round;stroke:rgb(0%,0%,0%);stroke-opacity:1;stroke-miterlimit:10;" d="M 189.21875 339.40625 L 55 336.09375 "/>
<path style="fill:none;stroke-width:1.5;stroke-linecap:round;stroke-linejoin:round;stroke:rgb(0%,0%,0%);stroke-opacity:1;stroke-miterlimit:10;" d="M 189.238281 340.519531 L 54.21875 349.03125 "/>
<path style="fill:none;stroke-width:1.5;stroke-linecap:round;stroke-linejoin:round;stroke:rgb(0%,0%,0%);stroke-opacity:1;stroke-miterlimit:10;" d="M 295.027344 327.433594 L 242.652344 271.863281 "/>
<path style="fill:none;stroke-width:1.5;stroke-linecap:round;stroke-linejoin:round;stroke:rgb(0%,0%,0%);stroke-opacity:1;stroke-miterlimit:10;" d="M 292.808594 330.207031 L 229.710938 292.777344 "/>
<path style="fill:none;stroke-width:1.5;stroke-linecap:round;stroke-linejoin:round;stroke:rgb(0%,0%,0%);stroke-opacity:1;stroke-miterlimit:10;" d="M 291.421875 333.554688 L 220.335938 315.40625 "/>
<path style="fill:none;stroke-width:1.5;stroke-linecap:round;stroke-linejoin:round;stroke:rgb(0%,0%,0%);stroke-opacity:1;stroke-miterlimit:10;" d="M 291.03125 337.085938 L 214.703125 339.34375 "/>
<path style="fill:none;stroke-width:1.5;stroke-linecap:round;stroke-linejoin:round;stroke:rgb(0%,0%,0%);stroke-opacity:1;stroke-miterlimit:10;" d="M 371.777344 355.121094 L 404.453125 341.585938 "/>
<path style="fill:none;stroke-width:1.5;stroke-linecap:round;stroke-linejoin:round;stroke:rgb(0%,0%,0%);stroke-opacity:1;stroke-miterlimit:10;" d="M 364.878906 348.222656 L 378.414062 315.546875 "/>
<path style="fill:none;stroke-width:1.5;stroke-linecap:round;stroke-linejoin:round;stroke:rgb(0%,0%,0%);stroke-opacity:1;stroke-miterlimit:10;" d="M 355.121094 348.222656 L 341.585938 315.546875 "/>
<path style="fill:none;stroke-width:1.5;stroke-linecap:round;stroke-linejoin:round;stroke:rgb(0%,0%,0%);stroke-opacity:1;stroke-miterlimit:10;" d="M 348.222656 355.121094 L 315.546875 341.585938 "/>
</g>
</svg>
